<?xml version="1.0"?>
<svg xmlns="http://www.w3.org/2000/svg" id="Capa_1" enable-background="new 0 0 511.984 511.984" height="512px" viewBox="0 0 511.984 511.984" width="512px"><g><g><path d="m422.162 6.759c-3.695-5.754-11.061-8.329-17.673-5.77l-16.579 6.404c-7.562 2.922-11.34 11.453-8.419 19.018v.001l-165.985 64.114c-8.823 3.407-14.323 11.664-14.619 20.575l-81.1 31.326c-7.661 2.958-12.334 10.201-12.398 17.914l-20.972 8.1-1.722-4.458c-2.924-7.565-11.458-11.343-19.017-8.419l-16.581 6.403c-7.563 2.924-11.339 11.455-8.417 19.018l20.444 52.931c2.924 7.567 11.42 11.357 19.018 8.419l16.579-6.403c7.562-2.922 11.34-11.453 8.419-19.018l-1.722-4.458 20.973-8.101c5.256 5.673 13.617 7.866 21.219 4.929l81.101-31.327c5.255 5.414 13.165 8.182 21.267 6.404 1.309 1.6 2.765 3.074 4.341 4.41v30.871c-12.834 3.623-22.414 15.072-23.228 28.848h-6.549c-11.362 0-20.605 9.243-20.605 20.605v14.095c0 9.614 6.628 17.687 15.548 19.951l-66.188 179.474.001-.001c-5.249 14.231 5.303 29.369 20.471 29.369 9.097 0 17.323-5.734 20.472-14.27l60.078-162.906v155.357c0 12.031 9.788 21.819 21.819 21.819 12.03 0 21.818-9.788 21.818-21.819v-64.369c0-4.143-3.357-7.5-7.5-7.5s-7.5 3.357-7.5 7.5v64.369c0 3.76-3.059 6.819-6.818 6.819s-6.819-3.06-6.819-6.819v-186.369h13.638v87c0 4.143 3.357 7.5 7.5 7.5s7.5-3.357 7.5-7.5v-55.985l60.078 162.904c3.148 8.535 11.375 14.27 20.472 14.27 15.167 0 25.719-15.137 20.472-29.368l-66.189-179.474c8.921-2.263 15.549-10.337 15.549-19.951v-14.095c0-11.362-9.243-20.605-20.605-20.605h-6.55c-.814-13.777-10.393-25.226-23.227-28.848v-30.87c7.319-6.204 11.977-15.456 11.977-25.779 0-.492-.016-.979-.037-1.466l42.045-16.24c3.864-1.492 5.786-5.835 4.294-9.698-1.493-3.864-5.839-5.786-9.698-4.294l-40.619 15.689c-5.915-11.043-17.465-17.787-29.779-17.787-18.635 0-33.796 15.161-33.796 33.796 0 2.598.405 5.681.654 6.615-2.439-.693-4.325-2.455-5.21-4.741l-19.381-50.175c-1.56-4.049.437-8.602 4.504-10.173l165.986-64.115 25.05 64.853-34.709 13.407c-3.864 1.492-5.786 5.835-4.294 9.698 1.493 3.863 5.83 5.788 9.698 4.294l34.71-13.407c2.933 7.596 11.45 11.347 19.018 8.421l16.579-6.403c6.619-2.557 10.338-9.411 9.205-16.154 30.45-36.286 8.933-91.964-37.992-98.355zm-245.995 485.766c-.983 2.667-3.555 4.459-6.397 4.459-4.754 0-8.042-4.721-6.398-9.178l.001-.001 67.86-184.01h14.536zm198.34 4.459c-2.843 0-5.414-1.792-6.397-4.459l-69.603-188.729h14.536l67.861 184.01c1.646 4.457-1.647 9.178-6.397 9.178zm-45.168-227.888v14.095c0 3.09-2.515 5.604-5.605 5.604-10.632 0-90.116 0-103.19 0-3.091 0-5.605-2.515-5.605-5.604v-14.095c0-3.091 2.515-5.605 5.605-5.605h103.19c3.09-.001 5.605 2.514 5.605 5.605zm-27.2-20.606h-60.002c.948-8.457 8.144-15.053 16.851-15.053h26.302c8.705.001 15.9 6.596 16.849 15.053zm-23.182-30.052h-13.638v-22.341c2.203.453 4.484.692 6.819.692s4.615-.238 6.818-.692v22.341zm-6.818-74.242c10.349 0 18.795 8.439 18.795 18.796 0 10.467-8.547 18.796-18.795 18.796-10.363 0-18.796-8.438-18.796-18.796 0-10.364 8.431-18.796 18.796-18.796zm-199.127 84.041-20.233-52.383 16.03-6.191c17.321 44.839-2.11-5.461 20.234 52.382zm23.002-29.772-6.192-16.031 19.697-7.608 6.192 16.03zm42.193-3.173c-2.25.872-4.794-.241-5.673-2.512l-.124-.32c-.001-.004-.002-.008-.004-.013-7.18-18.586-4.709-12.189-11.726-30.355-.871-2.257.255-4.802 2.511-5.673l79.405-30.671 15.016 38.872zm315.611-107.411-24.762-64.107c26.24 9.255 37.962 39.627 24.762 64.107zm-24.579 25.689c-3.872-10.025-32.042-82.948-35.65-92.291l16.031-6.192c1.927 4.99 33.517 86.773 35.649 92.292z" data-original="#000000" class="active-path" data-old_color="#000000" fill="#FFFFFF"/></g></g> </svg>
